<?xml version="1.0" encoding="UTF-8"?>
<!DOCTYPE svg  PUBLIC '-//W3C//DTD SVG 1.1//EN'  'http://www.w3.org/Graphics/SVG/1.1/DTD/svg11.dtd'>
<svg width="800px" height="800px" fill="none" viewBox="0 0 24 24" xmlns="http://www.w3.org/2000/svg">
<path d="m5.2929 5.2929c0.39053-0.39052 1.0237-0.39052 1.4142 0l5.2929 5.2929 5.2929-5.2929c0.3905-0.39052 1.0237-0.39052 1.4142 0 0.3905 0.39053 0.3905 1.0237 0 1.4142l-5.2929 5.2929 5.2929 5.2929c0.3905 0.3905 0.3905 1.0237 0 1.4142s-1.0237 0.3905-1.4142 0l-5.2929-5.2929-5.2929 5.2929c-0.39053 0.3905-1.0237 0.3905-1.4142 0-0.39052-0.3905-0.39052-1.0237 0-1.4142l5.2929-5.2929-5.2929-5.2929c-0.39052-0.39053-0.39052-1.0237 0-1.4142z" clip-rule="evenodd" fill="#008236" fill-rule="evenodd"/>
</svg>
